<svg width="23" height="28" viewBox="0 0 23 28" fill="none" xmlns="http://www.w3.org/2000/svg">
<path d="M20.9429 7.50001H16.9429V6.16668C16.9429 4.75219 16.381 3.39563 15.3808 2.39544C14.3806 1.39525 13.024 0.833344 11.6095 0.833344C10.1951 0.833344 8.8385 1.39525 7.8383 2.39544C6.83811 3.39563 6.2762 4.75219 6.2762 6.16668V7.50001H2.2762C1.92258 7.50001 1.58344 7.64049 1.3334 7.89053C1.08335 8.14058 0.942871 8.47972 0.942871 8.83334L0.942871 23.5C0.942871 24.5609 1.3643 25.5783 2.11444 26.3284C2.86459 27.0786 3.88201 27.5 4.94287 27.5H18.2762C19.3371 27.5 20.3545 27.0786 21.1046 26.3284C21.8548 25.5783 22.2762 24.5609 22.2762 23.5V8.83334C22.2762 8.47972 22.1357 8.14058 21.8857 7.89053C21.6356 7.64049 21.2965 7.50001 20.9429 7.50001ZM8.94287 6.16668C8.94287 5.45943 9.22382 4.78116 9.72392 4.28106C10.224 3.78096 10.9023 3.50001 11.6095 3.50001C12.3168 3.50001 12.9951 3.78096 13.4952 4.28106C13.9953 4.78116 14.2762 5.45943 14.2762 6.16668V7.50001L8.94287 7.50001V6.16668ZM19.6095 23.5C19.6095 23.8536 19.4691 24.1928 19.219 24.4428C18.969 24.6929 18.6298 24.8333 18.2762 24.8333H4.94287C4.58925 24.8333 4.25011 24.6929 4.00006 24.4428C3.75001 24.1928 3.60954 23.8536 3.60954 23.5L3.60954 10.1667H6.2762V11.5C6.2762 11.8536 6.41668 12.1928 6.66673 12.4428C6.91678 12.6929 7.25592 12.8333 7.60954 12.8333C7.96316 12.8333 8.3023 12.6929 8.55235 12.4428C8.8024 12.1928 8.94287 11.8536 8.94287 11.5V10.1667H14.2762V11.5C14.2762 11.8536 14.4167 12.1928 14.6667 12.4428C14.9168 12.6929 15.2559 12.8333 15.6095 12.8333C15.9632 12.8333 16.3023 12.6929 16.5523 12.4428C16.8024 12.1928 16.9429 11.8536 16.9429 11.5V10.1667L19.6095 10.1667V23.5Z" fill="#264065"/>
</svg>
