<svg width="33" height="32" viewBox="0 0 33 32" fill="none" xmlns="http://www.w3.org/2000/svg">
<path fill-rule="evenodd" clip-rule="evenodd" d="M14.6526 11.1173C15.3386 10.1864 15.5847 9.20522 14.8087 8.33918C13.0674 5.88588 11.8964 4.36876 11.1618 3.63815C9.76539 2.24917 7.46819 2.43705 6.25876 3.63696C5.60916 4.28145 5.38925 4.50277 4.72225 5.18491C1.00698 8.92779 3.27274 16.8401 9.29597 22.9108C15.3178 28.9801 23.1752 31.2627 26.8983 27.5119C27.5138 26.9145 28.0349 26.3895 28.4459 25.9521C29.6311 24.6907 29.8111 22.4797 28.4381 21.0433C27.7342 20.3069 26.2974 19.1847 23.7584 17.356C22.9807 16.6559 22.0587 16.8076 21.2134 17.366C20.8068 17.6346 20.5109 17.9063 19.9521 18.4695L18.9374 19.4917C18.8038 19.6264 16.9891 18.7113 15.2275 16.9359C13.465 15.1595 12.5568 13.3322 12.6899 13.1983C12.9642 12.9221 13.3026 12.5811 13.7052 12.1753C13.8825 11.9967 13.9673 11.9102 14.0759 11.7951C14.3024 11.5555 14.4899 11.338 14.6526 11.1173ZM20.8091 21.3774L21.824 20.3549C22.1315 20.045 22.3308 19.8544 22.4929 19.723C24.7171 21.3313 26.0053 22.3426 26.5314 22.893C26.8473 23.2235 26.7983 23.8266 26.5236 24.1189C26.1436 24.5233 25.6499 25.0207 25.0439 25.6092C22.6365 28.0343 16.2938 26.1917 11.1681 21.0256C6.04075 15.8579 4.21167 9.47051 6.60095 7.06343C7.26526 6.38409 7.47573 6.17228 8.11606 5.53699C8.35614 5.2988 9.01012 5.24531 9.30218 5.53581C9.86771 6.0983 10.9167 7.45077 12.4599 9.61523C12.38 9.71509 12.2803 9.82795 12.1588 9.95644C12.0697 10.0508 11.9955 10.1265 11.8331 10.2901C11.4308 10.6956 11.0927 11.0363 10.8188 11.3121C9.09313 13.0494 10.5628 16.0064 13.3554 18.8211C16.1462 21.6339 19.084 23.1153 20.8091 21.3774Z" fill="#264065"/>
</svg>
