<svg width="30" height="28" viewBox="0 0 30 28" fill="none" xmlns="http://www.w3.org/2000/svg">
<path fill-rule="evenodd" clip-rule="evenodd" d="M21.0139 0.964591C19.0837 0.964567 17.8394 1.19611 16.4131 1.89906C15.885 2.15932 15.3896 2.47275 14.9295 2.83841C14.4872 2.49325 14.0116 2.19421 13.5053 1.9421C12.0513 1.218 10.7433 0.964569 8.88231 0.964569C3.89816 0.964569 0.276245 5.12271 0.276245 10.5231C0.276245 14.6016 2.53469 18.5412 6.74136 22.3508C8.94944 24.3504 11.7687 26.3292 13.7877 27.382L14.9429 27.9843L16.0981 27.382C18.1171 26.3292 20.9364 24.3504 23.1445 22.3508C27.3511 18.5412 29.6096 14.6016 29.6096 10.5231C29.6096 5.17987 25.9535 0.985188 21.0139 0.964591ZM26.9429 10.5232C26.9429 13.7184 25.0578 17.0068 21.3612 20.3544C19.3458 22.1796 16.7549 24.0035 14.9429 24.9604C13.131 24.0035 10.54 22.1796 8.52463 20.3544C4.82803 17.0068 2.94293 13.7184 2.94293 10.5232C2.94293 6.53298 5.45445 3.64963 8.88233 3.64963C10.362 3.64963 11.2738 3.82629 12.3231 4.34887C12.9429 4.65755 13.4908 5.06514 13.965 5.57449L14.946 6.62828L15.9182 5.56614C16.4031 5.03639 16.9589 4.61951 17.5855 4.31072C18.6041 3.80871 19.4589 3.64963 21.0084 3.64964C24.3939 3.66377 26.9429 6.58836 26.9429 10.5232Z" fill="#264065"/>
</svg>
