<svg width="24" height="25" viewBox="0 0 24 25" fill="none" xmlns="http://www.w3.org/2000/svg">
<path fill-rule="evenodd" clip-rule="evenodd" d="M16.5532 2.7022C15.1056 2.70218 14.1724 2.87583 13.1027 3.40305C12.7066 3.59824 12.335 3.83331 11.99 4.10756C11.6582 3.84869 11.3015 3.62441 10.9218 3.43533C9.83132 2.89225 8.85028 2.70218 7.45455 2.70218C3.71644 2.70218 1 5.82079 1 9.87111C1 12.9299 2.69383 15.8847 5.84884 18.7418C7.50489 20.2415 9.61932 21.7257 11.1336 22.5152L12 22.967L12.8664 22.5152C14.3807 21.7257 16.4951 20.2415 18.1512 18.7418C21.3062 15.8847 23 12.9299 23 9.87111C23 5.86366 20.2579 2.71764 16.5532 2.7022ZM21 9.87113C21 12.2675 19.5862 14.7338 16.8137 17.2446C15.3022 18.6134 13.359 19.9814 12 20.699C10.641 19.9814 8.69782 18.6134 7.18628 17.2446C4.41382 14.7338 3 12.2675 3 9.87113C3 6.87849 4.88364 4.71597 7.45455 4.71597C8.56428 4.71597 9.24813 4.84847 10.0351 5.2404C10.5 5.47191 10.9109 5.77761 11.2665 6.15962L12.0023 6.94996L12.7315 6.15336C13.0951 5.75604 13.512 5.44339 13.9819 5.21179C14.7459 4.83528 15.387 4.71597 16.5491 4.71598C19.0882 4.72658 21 6.92002 21 9.87113Z" fill="white"/>
</svg>
