<svg width="30" height="30" viewBox="0 0 30 30" fill="none" xmlns="http://www.w3.org/2000/svg">
<path fill-rule="evenodd" clip-rule="evenodd" d="M15.0572 29.7677C6.95699 29.7677 0.390503 23.156 0.390503 15C0.390503 6.84403 6.95699 0.2323 15.0572 0.2323C23.1573 0.2323 29.7238 6.84403 29.7238 15C29.7238 23.156 23.1573 29.7677 15.0572 29.7677ZM24.9231 21.88C26.2686 19.9275 27.0571 17.5565 27.0571 15C27.0571 8.32696 21.6845 2.91736 15.0571 2.91736C8.42971 2.91736 3.05713 8.32696 3.05713 15C3.05713 17.5565 3.84564 19.9275 5.19114 21.88C6.69173 19.8842 10.2179 19.0276 15.0571 19.0276C19.8963 19.0276 23.4225 19.8842 24.9231 21.88ZM23.0101 24.0483C22.6198 22.6354 19.8163 21.7126 15.0571 21.7126C10.2979 21.7126 7.49445 22.6354 7.10423 24.0483C9.22154 25.9364 12.0064 27.0827 15.0571 27.0827C18.1079 27.0827 20.8927 25.9364 23.0101 24.0483ZM15.0571 6.94491C11.8293 6.94491 9.7238 9.30205 9.7238 12.315C9.7238 16.9163 12.0716 19.0276 15.0571 19.0276C18.0146 19.0276 20.3905 16.9864 20.3905 12.5835C20.3905 9.52466 18.2761 6.94491 15.0571 6.94491ZM12.3905 12.315C12.3905 15.3615 13.4814 16.3425 15.0571 16.3425C16.6274 16.3425 17.7238 15.4006 17.7238 12.5835C17.7238 10.9059 16.678 9.62992 15.0571 9.62992C13.3688 9.62992 12.3905 10.7252 12.3905 12.315Z" fill="#264065"/>
</svg>
