<svg width="33" height="32" viewBox="0 0 33 32" fill="none" xmlns="http://www.w3.org/2000/svg">
<path d="M27.8895 25.72L23.3561 21.2C24.8188 19.3366 25.6124 17.0355 25.6095 14.6667C25.6095 12.557 24.9839 10.4947 23.8118 8.74059C22.6397 6.98646 20.9738 5.61929 19.0248 4.81196C17.0757 4.00462 14.931 3.79339 12.8618 4.20496C10.7927 4.61654 8.89208 5.63244 7.40032 7.1242C5.90856 8.61596 4.89266 10.5166 4.48108 12.5857C4.06951 14.6548 4.28074 16.7996 5.08808 18.7486C5.89541 20.6977 7.26259 22.3636 9.01671 23.5357C10.7708 24.7077 12.8331 25.3333 14.9428 25.3333C17.3117 25.3363 19.6127 24.5427 21.4761 23.08L25.9961 27.6133C26.1201 27.7383 26.2675 27.8375 26.43 27.9052C26.5925 27.9729 26.7668 28.0077 26.9428 28.0077C27.1188 28.0077 27.2931 27.9729 27.4556 27.9052C27.618 27.8375 27.7655 27.7383 27.8895 27.6133C28.0144 27.4894 28.1136 27.3419 28.1813 27.1794C28.249 27.017 28.2839 26.8427 28.2839 26.6667C28.2839 26.4907 28.249 26.3164 28.1813 26.1539C28.1136 25.9914 28.0144 25.844 27.8895 25.72ZM6.94279 14.6667C6.94279 13.0844 7.41199 11.5377 8.29104 10.2221C9.17009 8.90652 10.4195 7.88114 11.8813 7.27564C13.3431 6.67013 14.9517 6.51171 16.5035 6.82039C18.0554 7.12907 19.4808 7.891 20.5996 9.00982C21.7185 10.1286 22.4804 11.5541 22.7891 13.1059C23.0978 14.6578 22.9393 16.2663 22.3338 17.7281C21.7283 19.1899 20.703 20.4394 19.3874 21.3184C18.0718 22.1975 16.525 22.6667 14.9428 22.6667C12.8211 22.6667 10.7862 21.8238 9.28594 20.3235C7.78565 18.8232 6.94279 16.7884 6.94279 14.6667Z" fill="#264065"/>
</svg>
