<svg width="13" height="12" viewBox="0 0 13 12" fill="none" xmlns="http://www.w3.org/2000/svg">
<path d="M5.60326 0.588041C5.97008 -0.155204 7.02992 -0.155203 7.39674 0.588043L8.47153 2.7658C8.61719 3.06095 8.89875 3.26551 9.22446 3.31284L11.6278 3.66206C12.448 3.78125 12.7755 4.78922 12.182 5.36776L10.4429 7.0629C10.2072 7.29264 10.0997 7.62364 10.1553 7.94804L10.5659 10.3416C10.706 11.1585 9.84855 11.7815 9.11492 11.3958L6.96534 10.2657C6.67402 10.1125 6.32598 10.1125 6.03466 10.2657L3.88508 11.3958C3.15146 11.7815 2.29402 11.1585 2.43413 10.3416L2.84467 7.94804C2.9003 7.62364 2.79276 7.29264 2.55707 7.0629L0.818027 5.36776C0.22451 4.78922 0.552019 3.78125 1.37224 3.66206L3.77554 3.31284C4.10125 3.26551 4.38281 3.06095 4.52848 2.7658L5.60326 0.588041Z" fill="#EECE00"/>
</svg>
