<svg width="33" height="33" viewBox="0 0 33 33" fill="none" xmlns="http://www.w3.org/2000/svg">
<g id="24 / basic / heart">
<path id="icon" fill-rule="evenodd" clip-rule="evenodd" d="M23.0139 2.96459C21.0837 2.96457 19.8394 3.19611 18.4131 3.89906C17.885 4.15932 17.3896 4.47275 16.9295 4.83841C16.4872 4.49325 16.0116 4.19421 15.5053 3.9421C14.0513 3.218 12.7433 2.96457 10.8823 2.96457C5.89816 2.96457 2.27625 7.12271 2.27625 12.5231C2.27625 16.6016 4.53469 20.5412 8.74136 24.3508C10.9494 26.3504 13.7687 28.3292 15.7877 29.382L16.9429 29.9843L18.0981 29.382C20.1171 28.3292 22.9364 26.3504 25.1445 24.3508C29.3511 20.5412 31.6096 16.6016 31.6096 12.5231C31.6096 7.17987 27.9535 2.98519 23.0139 2.96459ZM28.9429 12.5232C28.9429 15.7184 27.0578 19.0068 23.3612 22.3544C21.3458 24.1796 18.7549 26.0035 16.9429 26.9604C15.131 26.0035 12.54 24.1796 10.5246 22.3544C6.82803 19.0068 4.94293 15.7184 4.94293 12.5232C4.94293 8.53298 7.45445 5.64963 10.8823 5.64963C12.362 5.64963 13.2738 5.82629 14.3231 6.34887C14.9429 6.65755 15.4908 7.06514 15.965 7.57449L16.946 8.62828L17.9182 7.56614C18.4031 7.03639 18.9589 6.61951 19.5855 6.31072C20.6041 5.80871 21.4589 5.64963 23.0084 5.64964C26.3939 5.66377 28.9429 8.58836 28.9429 12.5232Z" fill="#264065"/>
</g>
</svg>
